<svg xmlns="http://www.w3.org/2000/svg" xml:space="preserve" width="8.01973in" height="8.02073in" version="1.0" style="shape-rendering:geometricPrecision; text-rendering:geometricPrecision; image-rendering:optimizeQuality; fill-rule:evenodd; clip-rule:evenodd"
viewBox="0 0 8020 8021"
 xmlns:xlink="http://www.w3.org/1999/xlink">
 <defs>
  <style type="text/css">
   <![CDATA[
    .fil0 {fill:#828282}
   ]]>
  </style>
 </defs>
 <g id="Layer_x0020_1">
  <metadata id="CorelCorpID_0Corel-Layer"/>
  <path class="fil0" d="M4010 0c-2215,0 -4010,1796 -4010,4010 0,2215 1795,4011 4010,4011 29,0 57,-1 86,-2l0 -2643 -888 0 0 -1110 888 0 0 -667c0,-914 516,-1554 1332,-1554 391,0 666,0 888,0l0 1110 -444 0c-444,0 -666,222 -666,666l0 444 1110 1 -222 1110 -888 0 0 2463c1630,-509 2814,-2030 2814,-3829 0,-2214 -1795,-4010 -4010,-4010z"/>
 </g>
</svg>
